HIERARCHY
ROOT Hips
{
  OFFSET 0.0000 94.0000 0.0000
  CHANNELS 6 Xposition Yposition Zposition Yrotation Xrotation Zrotation
  JOINT Spine1
  {
    OFFSET 0.0000 9.4826 -4.4131
    CHANNELS 3 Yrotation Xrotation Zrotation
    JOINT Spine2
    {
      OFFSET 0.0000 -8.4870 0.0000
      CHANNELS 3 Yrotation Xrotation Zrotation
      JOINT Spine3
      {
        OFFSET 0.0000 -8.4870 0.0000
        CHANNELS 3 Yrotation Xrotation Zrotation
        JOINT Spine4
        {
          OFFSET 0.0000 -14.3310 0.0000
          CHANNELS 3 Yrotation Xrotation Zrotation
          JOINT Neck
          {
            OFFSET 0.0000 -22.6512 0.0000
            CHANNELS 3 Yrotation Xrotation Zrotation
            JOINT Head
            {
              OFFSET 0.0000 -12.2776 0.0000
              CHANNELS 3 Yrotation Xrotation Zrotation
              JOINT HeadTip
              {
                OFFSET 0.0000 -18.6401 0.0000
                CHANNELS 3 Yrotation Xrotation Zrotation
                End Site
                {
                  OFFSET 0.0000 -9.3200 0.0000
                }
              }
            }
          }
          JOINT RightShoulder
          {
            OFFSET 7.8688 -13.9031 2.1401
            CHANNELS 3 Yrotation Xrotation Zrotation
            JOINT RightArm
            {
              OFFSET 0.0000 -14.3076 0.0000
              CHANNELS 3 Yrotation Xrotation Zrotation
              JOINT RightForeArm
              {
                OFFSET 0.0000 -29.4722 0.0000
                CHANNELS 3 Yrotation Xrotation Zrotation
                JOINT RightHand
                {
                  OFFSET 0.0000 -27.2009 0.0000
                  CHANNELS 3 Yrotation Xrotation Zrotation
                  JOINT RightFinger1Metacarpal
                  {
                    OFFSET -2.6225 -1.9568 0.0969
                    CHANNELS 3 Yrotation Xrotation Zrotation
                    JOINT RightFinger1Proximal
                    {
                      OFFSET 0.0000 -3.7290 0.0000
                      CHANNELS 3 Yrotation Xrotation Zrotation
                      JOINT RightFinger1Distal
                      {
                        OFFSET 0.0000 -2.8303 0.0000
                        CHANNELS 3 Yrotation Xrotation Zrotation
                        JOINT RightFinger1Tip
                        {
                          OFFSET 0.0000 -3.2334 0.0000
                          CHANNELS 3 Yrotation Xrotation Zrotation
                          End Site
                          {
                            OFFSET 0.0000 -1.6167 0.0000
                          }
                        }
                      }
                    }
                  }
                  JOINT RightFinger5Metacarpal
                  {
                    OFFSET 1.4009 -2.3428 0.0969
                    CHANNELS 3 Yrotation Xrotation Zrotation
                    JOINT RightFinger5Proximal
                    {
                      OFFSET 0.0000 -4.5362 0.0000
                      CHANNELS 3 Yrotation Xrotation Zrotation
                      JOINT RightFinger5Medial
                      {
                        OFFSET 0.0000 -3.3451 0.0000
                        CHANNELS 3 Yrotation Xrotation Zrotation
                        JOINT RightFinger5Distal
                        {
                          OFFSET 0.0000 -2.1026 0.0000
                          CHANNELS 3 Yrotation Xrotation Zrotation
                          JOINT RightFinger5Tip
                          {
                            OFFSET 0.0000 -2.1418 0.0000
                            CHANNELS 3 Yrotation Xrotation Zrotation
                            End Site
                            {
                              OFFSET 0.0000 -1.0709 0.0000
                            }
                          }
                        }
                      }
                    }
                  }
                  JOINT RightFinger4Metacarpal
                  {
                    OFFSET 0.5156 -2.5830 0.0969
                    CHANNELS 3 Yrotation Xrotation Zrotation
                    JOINT RightFinger4Proximal
                    {
                      OFFSET 0.0000 -4.8382 0.0000
                      CHANNELS 3 Yrotation Xrotation Zrotation
                      JOINT RightFinger4Medial
                      {
                        OFFSET 0.0000 -4.1340 0.0000
                        CHANNELS 3 Yrotation Xrotation Zrotation
                        JOINT RightFinger4Distal
                        {
                          OFFSET 0.0000 -2.6661 0.0000
                          CHANNELS 3 Yrotation Xrotation Zrotation
                          JOINT RightFinger4Tip
                          {
                            OFFSET 0.0000 -2.5957 0.0000
                            CHANNELS 3 Yrotation Xrotation Zrotation
                            End Site
                            {
                              OFFSET 0.0000 -1.2979 0.0000
                            }
                          }
                        }
                      }
                    }
                  }
                  JOINT RightFinger3Metacarpal
                  {
                    OFFSET -0.5130 -2.6061 0.0970
                    CHANNELS 3 Yrotation Xrotation Zrotation
                    JOINT RightFinger3Proximal
                    {
                      OFFSET 0.0000 -5.0521 0.0000
                      CHANNELS 3 Yrotation Xrotation Zrotation
                      JOINT RightFinger3Medial
                      {
                        OFFSET 0.0000 -4.4259 0.0000
                        CHANNELS 3 Yrotation Xrotation Zrotation
                        JOINT RightFinger3Distal
                        {
                          OFFSET 0.0000 -2.9192 0.0000
                          CHANNELS 3 Yrotation Xrotation Zrotation
                          JOINT RightFinger3Tip
                          {
                            OFFSET 0.0000 -2.8234 0.0000
                            CHANNELS 3 Yrotation Xrotation Zrotation
                            End Site
                            {
                              OFFSET 0.0000 -1.4117 0.0000
                            }
                          }
                        }
                      }
                    }
                  }
                  JOINT RightFinger2Metacarpal
                  {
                    OFFSET -1.5099 -2.4913 0.0970
                    CHANNELS 3 Yrotation Xrotation Zrotation
                    JOINT RightFinger2Proximal
                    {
                      OFFSET 0.0000 -5.1867 0.0000
                      CHANNELS 3 Yrotation Xrotation Zrotation
                      JOINT RightFinger2Medial
                      {
                        OFFSET 0.0000 -4.3112 0.0000
                        CHANNELS 3 Yrotation Xrotation Zrotation
                        JOINT RightFinger2Distal
                        {
                          OFFSET 0.0000 -2.6524 0.0000
                          CHANNELS 3 Yrotation Xrotation Zrotation
                          JOINT RightFinger2Tip
                          {
                            OFFSET 0.0000 -2.5993 0.0000
                            CHANNELS 3 Yrotation Xrotation Zrotation
                            End Site
                            {
                              OFFSET 0.0000 -1.2997 0.0000
                            }
                          }
                        }
                      }
                    }
                  }
                }
              }
            }
          }
          JOINT LeftShoulder
          {
            OFFSET -7.8688 -13.9031 2.1401
            CHANNELS 3 Yrotation Xrotation Zrotation
            JOINT LeftArm
            {
              OFFSET 0.0000 -14.3076 0.0000
              CHANNELS 3 Yrotation Xrotation Zrotation
              JOINT LeftForeArm
              {
                OFFSET 0.0001 -29.4722 0.0000
                CHANNELS 3 Yrotation Xrotation Zrotation
                JOINT LeftHand
                {
                  OFFSET 0.0000 -27.2009 0.0000
                  CHANNELS 3 Yrotation Xrotation Zrotation
                  JOINT LeftFinger5Metacarpal
                  {
                    OFFSET -1.4009 -2.3428 0.0970
                    CHANNELS 3 Yrotation Xrotation Zrotation
                    JOINT LeftFinger5Proximal
                    {
                      OFFSET 0.0000 -4.5362 0.0000
                      CHANNELS 3 Yrotation Xrotation Zrotation
                      JOINT LeftFinger5Medial
                      {
                        OFFSET 0.0000 -3.3451 0.0000
                        CHANNELS 3 Yrotation Xrotation Zrotation
                        JOINT LeftFinger5Distal
                        {
                          OFFSET 0.0000 -2.1026 0.0000
                          CHANNELS 3 Yrotation Xrotation Zrotation
                          JOINT LeftFinger5Tip
                          {
                            OFFSET 0.0000 -2.1418 0.0000
                            CHANNELS 3 Yrotation Xrotation Zrotation
                            End Site
                            {
                              OFFSET 0.0000 -1.0709 0.0000
                            }
                          }
                        }
                      }
                    }
                  }
                  JOINT LeftFinger4Metacarpal
                  {
                    OFFSET -0.5156 -2.5830 0.0970
                    CHANNELS 3 Yrotation Xrotation Zrotation
                    JOINT LeftFinger4Proximal
                    {
                      OFFSET 0.0000 -4.8382 0.0000
                      CHANNELS 3 Yrotation Xrotation Zrotation
                      JOINT LeftFinger4Medial
                      {
                        OFFSET 0.0000 -4.1340 0.0000
                        CHANNELS 3 Yrotation Xrotation Zrotation
                        JOINT LeftFinger4Distal
                        {
                          OFFSET 0.0000 -2.6661 0.0000
                          CHANNELS 3 Yrotation Xrotation Zrotation
                          JOINT LeftFinger4Tip
                          {
                            OFFSET 0.0000 -2.5958 0.0000
                            CHANNELS 3 Yrotation Xrotation Zrotation
                            End Site
                            {
                              OFFSET 0.0000 -1.2979 0.0000
                            }
                          }
                        }
                      }
                    }
                  }
                  JOINT LeftFinger3Metacarpal
                  {
                    OFFSET 0.5130 -2.6060 0.0970
                    CHANNELS 3 Yrotation Xrotation Zrotation
                    JOINT LeftFinger3Proximal
                    {
                      OFFSET 0.0000 -5.0521 0.0000
                      CHANNELS 3 Yrotation Xrotation Zrotation
                      JOINT LeftFinger3Medial
                      {
                        OFFSET 0.0000 -4.4259 0.0000
                        CHANNELS 3 Yrotation Xrotation Zrotation
                        JOINT LeftFinger3Distal
                        {
                          OFFSET 0.0000 -2.9192 0.0000
                          CHANNELS 3 Yrotation Xrotation Zrotation
                          JOINT LeftFinger3Tip
                          {
                            OFFSET 0.0000 -2.8234 0.0000
                            CHANNELS 3 Yrotation Xrotation Zrotation
                            End Site
                            {
                              OFFSET 0.0000 -1.4117 0.0000
                            }
                          }
                        }
                      }
                    }
                  }
                  JOINT LeftFinger2Metacarpal
                  {
                    OFFSET 1.5099 -2.4913 0.0970
                    CHANNELS 3 Yrotation Xrotation Zrotation
                    JOINT LeftFinger2Proximal
                    {
                      OFFSET 0.0000 -5.1867 0.0000
                      CHANNELS 3 Yrotation Xrotation Zrotation
                      JOINT LeftFinger2Medial
                      {
                        OFFSET 0.0000 -4.3112 0.0000
                        CHANNELS 3 Yrotation Xrotation Zrotation
                        JOINT LeftFinger2Distal
                        {
                          OFFSET 0.0000 -2.6524 0.0000
                          CHANNELS 3 Yrotation Xrotation Zrotation
                          JOINT LeftFinger2Tip
                          {
                            OFFSET 0.0000 -2.5993 0.0000
                            CHANNELS 3 Yrotation Xrotation Zrotation
                            End Site
                            {
                              OFFSET 0.0000 -1.2997 0.0000
                            }
                          }
                        }
                      }
                    }
                  }
                  JOINT LeftFinger1Metacarpal
                  {
                    OFFSET 2.6225 -1.9568 0.0970
                    CHANNELS 3 Yrotation Xrotation Zrotation
                    JOINT LeftFinger1Proximal
                    {
                      OFFSET 0.0000 -3.7290 0.0000
                      CHANNELS 3 Yrotation Xrotation Zrotation
                      JOINT LeftFinger1Distal
                      {
                        OFFSET 0.0000 -2.8303 0.0000
                        CHANNELS 3 Yrotation Xrotation Zrotation
                        JOINT LeftFinger1Tip
                        {
                          OFFSET 0.0000 -3.2334 0.0000
                          CHANNELS 3 Yrotation Xrotation Zrotation
                          End Site
                          {
                            OFFSET 0.0000 -1.6167 0.0000
                          }
                        }
                      }
                    }
                  }
                }
              }
            }
          }
        }
      }
    }
  }
  JOINT RightThigh
  {
    OFFSET -9.0535 0.0000 0.0000
    CHANNELS 3 Yrotation Xrotation Zrotation
    JOINT RightShin
    {
      OFFSET 0.0000 -43.0940 0.0000
      CHANNELS 3 Yrotation Xrotation Zrotation
      JOINT RightFoot
      {
        OFFSET 0.0000 -44.7484 -0.0646
        CHANNELS 3 Yrotation Xrotation Zrotation
        JOINT RightToe
        {
          OFFSET 0.0000 -11.3267 5.3664
          CHANNELS 3 Yrotation Xrotation Zrotation
          JOINT RightToeTip
          {
            OFFSET 0.0000 -6.4039 1.0812
            CHANNELS 3 Yrotation Xrotation Zrotation
            End Site
            {
              OFFSET 0.0000 -3.2019 0.5406
            }
          }
        }
      }
    }
  }
  JOINT LeftThigh
  {
    OFFSET 9.0535 0.0000 0.0000
    CHANNELS 3 Yrotation Xrotation Zrotation
    JOINT LeftShin
    {
      OFFSET 0.0000 -43.0940 0.0000
      CHANNELS 3 Yrotation Xrotation Zrotation
      JOINT LeftFoot
      {
        OFFSET 0.0000 -44.7484 -0.0647
        CHANNELS 3 Yrotation Xrotation Zrotation
        JOINT LeftToe
        {
          OFFSET 0.0000 -11.3267 5.3664
          CHANNELS 3 Yrotation Xrotation Zrotation
          JOINT LeftToeTip
          {
            OFFSET 0.0000 -6.4039 1.0812
            CHANNELS 3 Yrotation Xrotation Zrotation
            End Site
            {
              OFFSET 0.0000 -3.2019 0.5406
            }
          }
        }
      }
    }
  }
}
MOTION
Frames: 4
Frame Time: 0.010000
0.0000 94.0000 0.0000 0.0000 0.0000 0.0000 0.0000 0.0001 -180.0000 0.0000 0.0000 0.0000 0.0000 0.0000 0.0000 0.0000 0.0000 0.0000 0.0000 0.0000 0.0000 0.0000 0.0000 0.0000 0.0000 0.0000 0.0000 0.0000 0.0000 90.0001 89.9999 0.0000 0.0000 0.0000 0.0000 0.0001 0.0000 0.0000 0.0000 40.8933 20.7046 -22.2076 -4.1067 -20.7048 22.2077 0.0000 0.0000 0.0000 0.0000 0.0003 0.0000 -0.0001 -0.0001 20.0000 0.0000 0.0001 -20.0000 0.0000 0.0000 0.0000 0.0000 0.0000 0.0000 0.0000 0.0000 0.0000 0.0000 -0.0001 10.0000 -0.0001 0.0000 -10.0000 0.0000 0.0000 0.0000 0.0000 0.0000 0.0000 0.0000 0.0000 0.0000 0.0000 -0.0001 -0.0001 -0.0001 0.0001 0.0000 0.0000 0.0000 0.0000 0.0000 0.0000 0.0000 0.0000 0.0000 0.0000 0.0000 -0.0001 -10.0001 -0.0001 0.0001 10.0000 0.0000 0.0000 0.0000 0.0000 0.0000 0.0000 0.0000 0.0000 0.0000 0.0000 0.0000 -90.0000 -89.9999 0.0000 0.0000 0.0001 0.0000 0.0001 0.0000 0.0000 0.0000 0.0001 -0.0001 -20.0000 0.0000 0.0001 20.0000 -0.0003 0.0000 0.0000 0.0000 0.0000 0.0000 0.0000 0.0000 0.0000 0.0000 -0.0001 -9.9999 -0.0002 0.0001 9.9999 0.0000 0.0000 0.0000 0.0000 0.0000 0.0000 0.0000 0.0000 0.0000 -0.0001 0.0000 0.0000 0.0000 0.0000 0.0000 0.0000 0.0001 0.0000 0.0001 0.0000 0.0000 0.0000 0.0000 0.0000 0.0000 0.0000 10.0000 -0.0001 0.0000 -10.0000 0.0000 0.0000 0.0000 0.0000 0.0000 0.0000 0.0002 0.0000 0.0000 -40.8933 20.7047 22.2076 4.1067 -20.7047 -22.2077 0.0000 0.0000 0.0000 0.0000 0.0004 0.0000 90.0000 0.0000 0.0000 0.0000 0.0000 0.0000 -270.0000 90.0000 0.0000 0.0000 0.0000 0.0000 0.0000 0.0000 0.0000 -90.0000 0.0000 0.0000 0.0000 -0.0001 0.0000 270.0002 90.0000 0.0000 0.0000 0.0000 0.0000 0.0000 0.0000 0.0000 
-0.0249 40.5889 0.0987 1.0885 17.1944 3.6777 -1.5010 25.7600 178.7381 0.3016 -6.0139 -0.2067 0.3016 -6.0139 -0.2067 0.3016 -6.0139 -0.2067 -2.6044 2.6907 0.2502 0.0000 0.0000 0.0000 0.0000 0.0000 0.0000 19.3648 -4.0834 102.4119 86.4555 3.9345 -100.0530 3.3853 -1.4032 -38.1801 34.0005 39.8156 31.6937 40.8933 20.7046 -22.2077 -4.1067 -20.7048 22.2077 0.0000 0.0000 0.0000 0.0000 0.0000 0.0000 -0.0001 -0.0001 20.0000 7.1163 -18.7971 -21.1794 0.0000 -20.0535 0.0000 0.0000 -20.0535 0.0000 0.0000 0.0000 0.0000 0.0000 -0.0001 10.0000 3.6268 -19.7361 -10.6311 0.0000 -20.0535 0.0000 0.0000 -20.0535 0.0000 0.0000 0.0000 0.0000 0.0000 0.0000 0.0000 0.0000 -20.0535 0.0000 0.0000 -20.0535 0.0000 0.0000 -20.0535 0.0000 0.0000 0.0000 0.0000 0.0000 -0.0001 -10.0001 -3.6271 -19.7360 10.6312 0.0000 -20.0535 0.0000 0.0000 -20.0535 0.0000 0.0000 0.0000 0.0000 -20.5114 -4.3760 -102.7953 -85.9642 2.7374 95.6450 -2.6466 -1.8419 31.2954 -11.0993 31.8553 -30.1765 0.0001 -0.0001 -20.0000 -7.1163 -18.7970 21.1794 0.0000 -20.0535 0.0000 0.0000 -20.0535 0.0000 0.0000 0.0000 0.0000 0.0000 -0.0001 -9.9999 -3.6271 -19.7360 10.6311 0.0000 -20.0535 0.0000 0.0000 -20.0535 0.0000 0.0000 0.0000 0.0000 0.0000 0.0000 0.0000 0.0000 -20.0535 0.0000 0.0000 -20.0535 0.0000 0.0000 -20.0535 0.0000 0.0000 0.0000 0.0000 0.0000 0.0000 10.0000 3.6268 -19.7361 -10.6312 0.0000 -20.0535 0.0000 0.0000 -20.0535 0.0000 0.0000 0.0000 0.0000 -40.8933 20.7047 22.2076 4.1067 -20.7047 -22.2077 0.0000 0.0000 0.0000 0.0000 0.0000 0.0000 80.0150 -4.5205 -109.6684 0.0001 0.0011 136.6350 -108.5707 60.4938 163.2653 0.0000 11.2494 0.0000 0.0000 0.0000 0.0000 -76.5404 -5.3555 107.1232 -0.0002 -0.0054 -136.5540 97.4916 65.6513 -173.0782 0.0000 16.7376 0.0000 0.0000 0.0000 0.0000 
-0.0286 40.5906 0.1270 1.0885 17.1944 3.6777 -1.5010 25.7600 178.7381 0.3016 -6.0139 -0.2067 0.3016 -6.0139 -0.2067 0.3016 -6.0139 -0.2067 -2.6044 2.6907 0.2502 0.0000 0.0000 0.0000 0.0000 0.0000 0.0000 19.3648 -4.0834 102.4119 86.4555 3.9345 -100.0530 3.3853 -1.4032 -38.1801 34.0005 39.8156 31.6937 40.8933 20.7046 -22.2077 -4.1067 -20.7048 22.2077 0.0000 0.0000 0.0000 0.0000 0.0000 0.0000 -0.0001 -0.0001 20.0000 7.1163 -18.7971 -21.1794 0.0000 -20.0535 0.0000 0.0000 -20.0535 0.0000 0.0000 0.0000 0.0000 0.0000 -0.0001 10.0000 3.6268 -19.7361 -10.6311 0.0000 -20.0535 0.0000 0.0000 -20.0535 0.0000 0.0000 0.0000 0.0000 0.0000 0.0000 0.0000 0.0000 -20.0535 0.0000 0.0000 -20.0535 0.0000 0.0000 -20.0535 0.0000 0.0000 0.0000 0.0000 0.0000 -0.0001 -10.0001 -3.6271 -19.7360 10.6312 0.0000 -20.0535 0.0000 0.0000 -20.0535 0.0000 0.0000 0.0000 0.0000 -20.5114 -4.3760 -102.7953 -85.9642 2.7374 95.6450 -2.6466 -1.8419 31.2954 -11.0993 31.8553 -30.1765 0.0001 -0.0001 -20.0000 -7.1163 -18.7970 21.1794 0.0000 -20.0535 0.0000 0.0000 -20.0535 0.0000 0.0000 0.0000 0.0000 0.0000 -0.0001 -9.9999 -3.6271 -19.7360 10.6311 0.0000 -20.0535 0.0000 0.0000 -20.0535 0.0000 0.0000 0.0000 0.0000 0.0000 0.0000 0.0000 0.0000 -20.0535 0.0000 0.0000 -20.0535 0.0000 0.0000 -20.0535 0.0000 0.0000 0.0000 0.0000 0.0000 0.0000 10.0000 3.6268 -19.7361 -10.6312 0.0000 -20.0535 0.0000 0.0000 -20.0535 0.0000 0.0000 0.0000 0.0000 -40.8933 20.7047 22.2076 4.1067 -20.7047 -22.2077 0.0000 0.0000 0.0000 0.0000 0.0000 0.0000 80.0129 -4.5179 -109.6276 0.0001 0.0012 136.6473 -108.5356 60.4441 163.3020 0.0000 11.2494 0.0000 0.0000 0.0000 0.0000 -76.5290 -5.3408 107.0829 -0.0002 -0.0054 -136.5641 97.4444 65.6032 -173.1110 0.0000 16.7376 0.0000 0.0000 0.0000 0.0000 
-0.0305 40.5914 0.1411 1.0885 17.1944 3.6777 -1.5010 25.7600 178.7381 0.3016 -6.0139 -0.2067 0.3016 -6.0139 -0.2067 0.3016 -6.0139 -0.2067 -2.6044 2.6907 0.2502 0.0000 0.0000 0.0000 0.0000 0.0000 0.0000 19.3648 -4.0834 102.4119 86.4555 3.9345 -100.0530 3.3853 -1.4032 -38.1801 34.0005 39.8156 31.6937 40.8933 20.7046 -22.2077 -4.1067 -20.7048 22.2077 0.0000 0.0000 0.0000 0.0000 0.0000 0.0000 -0.0001 -0.0001 20.0000 7.1163 -18.7971 -21.1794 0.0000 -20.0535 0.0000 0.0000 -20.0535 0.0000 0.0000 0.0000 0.0000 0.0000 -0.0001 10.0000 3.6268 -19.7361 -10.6311 0.0000 -20.0535 0.0000 0.0000 -20.0535 0.0000 0.0000 0.0000 0.0000 0.0000 0.0000 0.0000 0.0000 -20.0535 0.0000 0.0000 -20.0535 0.0000 0.0000 -20.0535 0.0000 0.0000 0.0000 0.0000 0.0000 -0.0001 -10.0001 -3.6271 -19.7360 10.6312 0.0000 -20.0535 0.0000 0.0000 -20.0535 0.0000 0.0000 0.0000 0.0000 -20.5114 -4.3760 -102.7953 -85.9642 2.7374 95.6450 -2.6466 -1.8419 31.2954 -11.0993 31.8553 -30.1765 0.0001 -0.0001 -20.0000 -7.1163 -18.7970 21.1794 0.0000 -20.0535 0.0000 0.0000 -20.0535 0.0000 0.0000 0.0000 0.0000 0.0000 -0.0001 -9.9999 -3.6271 -19.7360 10.6311 0.0000 -20.0535 0.0000 0.0000 -20.0535 0.0000 0.0000 0.0000 0.0000 0.0000 0.0000 0.0000 0.0000 -20.0535 0.0000 0.0000 -20.0535 0.0000 0.0000 -20.0535 0.0000 0.0000 0.0000 0.0000 0.0000 0.0000 10.0000 3.6268 -19.7361 -10.6312 0.0000 -20.0535 0.0000 0.0000 -20.0535 0.0000 0.0000 0.0000 0.0000 -40.8933 20.7047 22.2076 4.1067 -20.7047 -22.2077 0.0000 0.0000 0.0000 0.0000 0.0000 0.0000 80.0120 -4.5168 -109.6066 0.0001 0.0012 136.6535 -108.5182 60.4186 163.3205 0.0000 11.2494 0.0000 0.0000 0.0000 0.0000 -76.5232 -5.3335 107.0628 -0.0002 -0.0054 -136.5691 97.4210 65.5793 -173.1273 0.0000 16.7376 0.0000 0.0000 0.0000 0.0000 
